<?xml version="1.0" encoding="UTF-8"?>
<svg width="20px" height="25px" viewBox="0 0 20 25" version="1.1" xmlns="http://www.w3.org/2000/svg" xmlns:xlink="http://www.w3.org/1999/xlink">
    <!-- Generator: Sketch 39.1 (31720) - http://www.bohemiancoding.com/sketch -->
    <title>icono-location</title>
    <desc>Created with Sketch.</desc>
    <defs></defs>
    <g id="diseños" stroke="none" stroke-width="1" fill="none" fill-rule="evenodd">
        <g id="02-Formulario2-C" transform="translate(-323.000000, -377.000000)" fill="#42ABF3">
            <g id="step3" transform="translate(273.000000, 215.000000)">
                <g id="email" transform="translate(38.000000, 162.000000)">
                    <g id="icono-location" transform="translate(12.000000, 0.000000)">
                        <g id="Capa_1">
                            <g id="icono-calles">
                                <path d="M9.69633028,0 C4.4059633,0 0.10206422,4.30447248 0.10206422,9.59541284 C0.10206422,13.3760321 1.68486239,17.2002294 4.6793578,20.6547018 C6.91594037,23.2348624 9.13245413,24.6966743 9.22580275,24.7576835 C9.36869266,24.8511468 9.53256881,24.8978211 9.69644495,24.8978211 C9.86020642,24.8978211 10.0240826,24.8511468 10.1670872,24.7576835 C10.2603211,24.6966743 12.4771789,23.2348624 14.7137615,20.6548165 C17.7084862,17.2002294 19.2913991,13.3760321 19.2913991,9.59541284 C19.2912844,4.30447248 14.9869266,0 9.69633028,0 L9.69633028,0 Z M9.69633028,22.9816514 C7.93176606,21.6667431 1.82224771,16.6061927 1.82224771,9.59541284 C1.82224771,5.25298165 5.35447248,1.72018349 9.69633028,1.72018349 C14.0385321,1.72018349 17.5711009,5.25298165 17.5711009,9.59541284 C17.5711009,16.6061927 11.4610092,21.6667431 9.69633028,22.9816514 L9.69633028,22.9816514 Z" id="Shape"></path>
                                <path d="M9.69690367,5.78543578 C7.59713303,5.78543578 5.88887615,7.49380734 5.88887615,9.59380734 C5.88887615,11.6932339 7.59713303,13.4012615 9.69690367,13.4012615 C11.7966743,13.4012615 13.5048165,11.6932339 13.5048165,9.59380734 C13.5048165,7.49392202 11.7965596,5.78543578 9.69690367,5.78543578 L9.69690367,5.78543578 Z M9.69690367,11.681078 C8.5456422,11.681078 7.60905963,10.7447248 7.60905963,9.59380734 C7.60905963,8.44231651 8.5456422,7.50561927 9.69690367,7.50561927 C10.8480505,7.50561927 11.784633,8.44231651 11.784633,9.59380734 C11.784633,10.7447248 10.8480505,11.681078 9.69690367,11.681078 L9.69690367,11.681078 Z" id="Shape"></path>
                            </g>
                        </g>
                    </g>
                </g>
            </g>
        </g>
    </g>
</svg>