<?xml version="1.0" encoding="utf-8"?>
<!-- Generator: Adobe Illustrator 21.0.0, SVG Export Plug-In . SVG Version: 6.00 Build 0)  -->
<svg version="1.1" id="Layer_1" xmlns="http://www.w3.org/2000/svg" xmlns:xlink="http://www.w3.org/1999/xlink" x="0px" y="0px"
	 viewBox="0 0 25 25" style="enable-background:new 0 0 25 25;" xml:space="preserve">
<style type="text/css">
	.st0{fill:#FF5760;}
</style>
<title>icono-info</title>
<desc>Created with Sketch.</desc>
<g id="diseños">
	<g id="_x30_2-Formulario2-C" transform="translate(-475.000000, -444.000000)">
		<g id="icono-info" transform="translate(475.000000, 444.000000)">
			<path id="Oval-2" class="st0" d="M24.5,12.5c0-6.6-5.4-12-12-12s-12,5.4-12,12s5.4,12,12,12S24.5,19.1,24.5,12.5z M1.5,12.5
				c0-6.1,4.9-11,11-11s11,4.9,11,11s-4.9,11-11,11S1.5,18.6,1.5,12.5z"/>
		</g>
	</g>
</g>
<g>
	<path class="st0" d="M11.4,12.5L8.1,6.8C8,6.6,7.9,6.4,7.9,6.1c0-0.5,0.4-0.9,0.9-0.9c0.6,0,0.8,0.5,1.1,0.9l2.6,4.5l2.6-4.5
		c0.3-0.4,0.5-0.9,1.1-0.9c0.5,0,0.9,0.4,0.9,0.9c0,0.3-0.1,0.5-0.2,0.7l-3.3,5.7l3.3,5.7c0.1,0.2,0.2,0.4,0.2,0.7
		c0,0.5-0.4,0.9-0.9,0.9c-0.6,0-0.8-0.5-1.1-0.9l-2.6-4.5l-2.6,4.5c-0.3,0.4-0.5,0.9-1.1,0.9c-0.5,0-0.9-0.4-0.9-0.9
		c0-0.3,0.1-0.5,0.2-0.7L11.4,12.5z"/>
</g>
</svg>
