<?xml version="1.0" encoding="UTF-8"?>
<svg width="18px" height="24px" viewBox="0 0 18 24" version="1.1" xmlns="http://www.w3.org/2000/svg" xmlns:xlink="http://www.w3.org/1999/xlink">
    <!-- Generator: Sketch 39.1 (31720) - http://www.bohemiancoding.com/sketch -->
    <title>icono-nombre</title>
    <desc>Created with Sketch.</desc>
    <defs></defs>
    <g id="diseños" stroke="none" stroke-width="1" fill="none" fill-rule="evenodd">
        <g id="02-Formulario-1--B" transform="translate(-323.000000, -311.000000)" fill="#42ABF3">
            <g id="step1-complete" transform="translate(273.000000, 215.000000)">
                <g id="nombre" transform="translate(38.000000, 96.000000)">
                    <g id="icono-nombre" transform="translate(12.000000, 0.000000)">
                        <g id="Capa_1">
                            <g id="Group">
                                <path d="M8.96335458,9.83840729 C11.6710438,9.83840729 13.8710412,7.63324703 13.8710412,4.91920364 C13.8710412,2.20516025 11.6710438,0 8.96335458,0 C6.25566541,0 4.05566795,2.20516025 4.05566795,4.91920364 C4.05566795,7.63324703 6.25566541,9.83840729 8.96335458,9.83840729 L8.96335458,9.83840729 Z M8.96335458,2.14266583 C10.4864297,2.14266583 11.7333919,3.39255424 11.7333919,4.91920364 C11.7333919,6.44585305 10.4864297,7.69574145 8.96335458,7.69574145 C7.44027942,7.69574145 6.1933173,6.44585305 6.1933173,4.91920364 C6.1933173,3.39255424 7.43137255,2.14266583 8.96335458,2.14266583 L8.96335458,2.14266583 Z" id="Shape"></path>
                                <path d="M1.08077261,23.9264351 C1.66862618,23.9800018 2.18522477,23.5425408 2.23866601,22.9533077 C2.8176127,16.6681546 5.07995826,13.4809392 8.96335458,13.4809392 C12.8467509,13.4809392 15.1090965,16.6681546 15.6880432,22.9533077 C15.7414844,23.5068297 16.2046418,23.9264351 16.747961,23.9264351 C16.7835885,23.9264351 16.8103091,23.9264351 16.8459366,23.9175074 C17.4337901,23.8639407 17.8702269,23.3461298 17.8167856,22.7568967 C17.5317657,19.6143201 16.8103091,17.0699045 15.6791363,15.2039996 C14.1382474,12.6417284 11.8759018,11.3472011 8.96335458,11.3472011 C6.05080734,11.3472011 3.78846178,12.6417284 2.24757288,15.2039996 C1.1164001,17.0788322 0.403850314,19.6143201 0.109923528,22.7568967 C0.0564822944,23.3550576 0.492919037,23.8728685 1.08077261,23.9264351 L1.08077261,23.9264351 Z" id="Shape"></path>
                            </g>
                        </g>
                    </g>
                </g>
            </g>
        </g>
    </g>
</svg>