<?xml version="1.0" encoding="UTF-8"?>
<svg width="133px" height="48px" viewBox="0 0 133 48" version="1.1" xmlns="http://www.w3.org/2000/svg" xmlns:xlink="http://www.w3.org/1999/xlink">
    <!-- Generator: Sketch 42 (36781) - http://www.bohemiancoding.com/sketch -->
    <title>Logo_empresa</title>
    <desc>Created with Sketch.</desc>
    <defs>
        <path d="M3.23046875,5.79296875 L0,5.79296875 L0,0.08203125 L3.23046875,0.08203125 L3.23046875,0.87109375 L0.93359375,0.87109375 L0.93359375,2.42578125 L3.0859375,2.42578125 L3.0859375,3.20703125 L0.93359375,3.20703125 L0.93359375,5 L3.23046875,5 L3.23046875,5.79296875 Z M7.86692707,5.79296875 L6.21067707,1.0234375 L6.17942707,1.0234375 C6.22369812,1.73177438 6.24583332,2.39583023 6.24583332,3.015625 L6.24583332,5.79296875 L5.39817707,5.79296875 L5.39817707,0.08203125 L6.71458332,0.08203125 L8.30052082,4.625 L8.32395832,4.625 L9.95677082,0.08203125 L11.2770833,0.08203125 L11.2770833,5.79296875 L10.3786458,5.79296875 L10.3786458,2.96875 C10.3786458,2.68489441 10.3858072,2.31510645 10.4001302,1.859375 C10.4144532,1.40364355 10.4268228,1.12760465 10.4372396,1.03125 L10.4059896,1.03125 L8.69114582,5.79296875 L7.86692707,5.79296875 Z M17.4955729,1.80859375 C17.4955729,2.4049509 17.3002623,2.86197758 16.9096354,3.1796875 C16.5190084,3.49739742 15.9630244,3.65625 15.2416666,3.65625 L14.6479166,3.65625 L14.6479166,5.79296875 L13.7143229,5.79296875 L13.7143229,0.08203125 L15.3588541,0.08203125 C16.0723994,0.08203125 16.6068992,0.227863125 16.9623698,0.51953125 C17.3178403,0.811199375 17.4955729,1.24088258 17.4955729,1.80859375 Z M14.6479166,2.87109375 L15.1440104,2.87109375 C15.6231794,2.87109375 15.9747384,2.78776125 16.1986979,2.62109375 C16.4226573,2.45442625 16.5346354,2.19401219 16.5346354,1.83984375 C16.5346354,1.51171711 16.434376,1.26692789 16.2338541,1.10546875 C16.0333323,0.944009609 15.7208354,0.86328125 15.2963541,0.86328125 L14.6479166,0.86328125 L14.6479166,2.87109375 Z M20.503125,2.73828125 L21.1515625,2.73828125 C21.5864605,2.73828125 21.9015615,2.65755289 22.096875,2.49609375 C22.2921884,2.33463461 22.3898437,2.09505367 22.3898437,1.77734375 C22.3898437,1.45442547 22.284376,1.22265695 22.0734375,1.08203125 C21.8624989,0.941405547 21.5447937,0.87109375 21.1203125,0.87109375 L20.503125,0.87109375 L20.503125,2.73828125 Z M20.503125,3.51171875 L20.503125,5.79296875 L19.5695312,5.79296875 L19.5695312,0.08203125 L21.1828125,0.08203125 C21.9197953,0.08203125 22.4653628,0.220050703 22.8195312,0.49609375 C23.1736996,0.772136797 23.3507812,1.1887993 23.3507812,1.74609375 C23.3507812,2.4570348 22.9809932,2.96354016 22.2414062,3.265625 L23.8546875,5.79296875 L22.7921875,5.79296875 L21.425,3.51171875 L20.503125,3.51171875 Z M28.8466145,5.79296875 L25.6161458,5.79296875 L25.6161458,0.08203125 L28.8466145,0.08203125 L28.8466145,0.87109375 L26.5497395,0.87109375 L26.5497395,2.42578125 L28.7020833,2.42578125 L28.7020833,3.20703125 L26.5497395,3.20703125 L26.5497395,5 L28.8466145,5 L28.8466145,5.79296875 Z M34.3072916,4.2421875 C34.3072916,4.75000254 34.1236997,5.14843605 33.7565103,5.4375 C33.389321,5.72656395 32.8828156,5.87109375 32.2369791,5.87109375 C31.5911425,5.87109375 31.062502,5.77083434 30.6510416,5.5703125 L30.6510416,4.6875 C30.9114596,4.80989645 31.1881495,4.90624965 31.4811197,4.9765625 C31.7740899,5.04687535 32.0468737,5.08203125 32.2994791,5.08203125 C32.6692726,5.08203125 32.9420563,5.01171945 33.1178385,4.87109375 C33.2936206,4.73046805 33.3815103,4.54166785 33.3815103,4.3046875 C33.3815103,4.09114477 33.300782,3.91015699 33.1393228,3.76171875 C32.9778637,3.61328051 32.6445337,3.43750102 32.1393228,3.234375 C31.6184869,3.02343645 31.2513031,2.78255344 31.0377603,2.51171875 C30.8242176,2.24088406 30.7174478,1.91536648 30.7174478,1.53515625 C30.7174478,1.05859137 30.886717,0.683595117 31.2252603,0.41015625 C31.5638037,0.136717383 32.0182262,0 32.5885416,0 C33.1354193,0 33.6796847,0.119790469 34.2213541,0.359375 L33.9244791,1.12109375 C33.416664,0.907551016 32.9635436,0.80078125 32.5651041,0.80078125 C32.2630192,0.80078125 32.0338549,0.866535801 31.8776041,0.998046875 C31.7213533,1.12955795 31.6432291,1.30338434 31.6432291,1.51953125 C31.6432291,1.66796949 31.6744788,1.79492135 31.7369791,1.90039063 C31.7994794,2.0058599 31.902343,2.10546828 32.0455728,2.19921875 C32.1888027,2.29296922 32.4466126,2.4166659 32.8190103,2.5703125 C33.2382833,2.74479254 33.5455719,2.90755133 33.7408853,3.05859375 C33.9361988,3.20963617 34.0794265,3.38020738 34.1705728,3.5703125 C34.2617191,3.76041762 34.3072916,3.98437371 34.3072916,4.2421875 Z M39.8890624,5.79296875 L39.3187499,4.20703125 L37.1351562,4.20703125 L36.5765624,5.79296875 L35.5921874,5.79296875 L37.7289062,0.05859375 L38.7445312,0.05859375 L40.8812499,5.79296875 L39.8890624,5.79296875 Z M39.0726562,3.40234375 L38.5374999,1.84765625 C38.4984372,1.74348906 38.4444013,1.5794282 38.3753905,1.35546875 C38.3063798,1.1315093 38.2588542,0.967448438 38.2328124,0.86328125 C38.1624996,1.18359535 38.059636,1.53385227 37.9242187,1.9140625 L37.4085937,3.40234375 L39.0726562,3.40234375 Z M45.8614582,4.2421875 C45.8614582,4.75000254 45.6778663,5.14843605 45.310677,5.4375 C44.9434876,5.72656395 44.4369823,5.87109375 43.7911457,5.87109375 C43.1453092,5.87109375 42.6166686,5.77083434 42.2052082,5.5703125 L42.2052082,4.6875 C42.4656262,4.80989645 42.7423161,4.90624965 43.0352863,4.9765625 C43.3282566,5.04687535 43.6010403,5.08203125 43.8536457,5.08203125 C44.2234392,5.08203125 44.496223,5.01171945 44.6720051,4.87109375 C44.8477872,4.73046805 44.935677,4.54166785 44.935677,4.3046875 C44.935677,4.09114477 44.8549486,3.91015699 44.6934895,3.76171875 C44.5320303,3.61328051 44.1987003,3.43750102 43.6934895,3.234375 C43.1726535,3.02343645 42.8054697,2.78255344 42.591927,2.51171875 C42.3783842,2.24088406 42.2716145,1.91536648 42.2716145,1.53515625 C42.2716145,1.05859137 42.4408836,0.683595117 42.779427,0.41015625 C43.1179703,0.136717383 43.5723929,0 44.1427082,0 C44.689586,0 45.2338513,0.119790469 45.7755207,0.359375 L45.4786457,1.12109375 C44.9708307,0.907551016 44.5177102,0.80078125 44.1192707,0.80078125 C43.8171859,0.80078125 43.5880215,0.866535801 43.4317707,0.998046875 C43.2755199,1.12955795 43.1973957,1.30338434 43.1973957,1.51953125 C43.1973957,1.66796949 43.2286454,1.79492135 43.2911457,1.90039063 C43.353646,2.0058599 43.4565096,2.10546828 43.5997395,2.19921875 C43.7429694,2.29296922 44.0007793,2.4166659 44.373177,2.5703125 C44.7924499,2.74479254 45.0997385,2.90755133 45.295052,3.05859375 C45.4903654,3.20963617 45.6335932,3.38020738 45.7247395,3.5703125 C45.8158858,3.76041762 45.8614582,3.98437371 45.8614582,4.2421875 Z" id="path-1"></path>
    </defs>
    <g id="Page-1" stroke="none" stroke-width="1" fill="none" fill-rule="evenodd">
        <g id="Logo_empresa">
            <path d="M40.2738295,9.98916783 L30.5878698,15.9921915 C30.5878698,15.9921915 23.1148648,11.8130497 22.0527863,11.2400914 C20.1712504,10.2393526 19.1588148,10.8123108 17.7827974,11.6051497 L10.8663523,15.8773179 L1,10.4888326 L16.5116594,1.07202091 C18.4805949,0.0304068176 21.0767089,-0.495333449 23.1421334,0.632964362 L40.2738295,9.98916783 Z" id="Fill-1-Copy" fill="#42ABF3" fill-rule="nonzero"></path>
            <path d="M0,13 L9.85027078,18.7239443 C9.85027078,18.7239443 9.76566809,27.3380506 9.77196085,28.5516226 C9.79503431,30.695459 10.7767052,31.3198636 12.1247548,32.1620347 L19.1460793,36.256607 L19.1460793,47.5663655 L3.54142685,38.3067122 C1.69485068,37.0579028 0,35.0077977 0,32.6398523 L0,13 Z" id="Fill-3-Copy" fill="#FF5760" fill-rule="nonzero"></path>
            <path d="M41.1460792,13 L31.2958085,18.7239443 C31.2958085,18.7239443 31.3804112,27.3380506 31.3741184,28.5516226 C31.3510449,30.695459 30.369374,31.3198636 29.0213244,32.1620347 L22,36.256607 L22,47.5663655 L37.6046524,38.3067122 C39.4512286,37.0579028 41.1460792,35.0077977 41.1460792,32.6398523 L41.1460792,13 Z" id="Fill-5-Copy" fill="#FFE938" fill-rule="nonzero"></path>
            <path d="M20.2314323,23.3727007 C20.1503256,23.3727007 20.0720156,23.3297112 20.0293647,23.2528939 C19.9671363,23.1401346 20.0069904,22.9984807 20.1188618,22.9357584 L30.624279,17.0292849 C30.7354512,16.9672673 30.8766887,17.0067331 30.9389171,17.1194924 C31.0011456,17.2322517 30.9612914,17.3739056 30.8494201,17.4366279 L20.3440028,23.3431014 C20.3083438,23.3628342 20.269888,23.3727007 20.2314323,23.3727007" id="Fill-7-Copy" fill="#42ABF3" fill-rule="nonzero"></path>
            <path d="M20.2314373,36.6692469 L20.2307381,36.6692469 C20.1027852,36.6685422 19.9993043,36.5642398 20.0000035,36.4352714 L20.0356624,23.232566 C20.0363616,23.1043023 20.1398426,23 20.2670963,23 L20.2677955,23 C20.3957483,23.0007047 20.4992293,23.1050071 20.4985301,23.2339755 L20.4628711,36.4366808 C20.4621719,36.5656493 20.3586909,36.6692469 20.2314373,36.6692469" id="Fill-9-Copy" fill="#FFE938" fill-rule="nonzero"></path>
            <path d="M20.3814056,23.3729131 C20.3422506,23.3729131 20.3023964,23.3630466 20.265339,23.3411995 L10.1158125,17.4354308 C10.0053395,17.371299 9.96688369,17.2282356 10.0312098,17.1168858 C10.0948366,17.0048312 10.2367733,16.966775 10.3472463,17.0316116 L20.4974721,22.938085 C20.607945,23.0022169 20.6457016,23.1445755 20.5813756,23.2559253 C20.5394238,23.3313331 20.4611139,23.3729131 20.3814056,23.3729131" id="Fill-11-Copy" fill="#FF5760" fill-rule="nonzero"></path>
            <path d="M69.5804327,25.5716042 C69.8051665,25.5365305 70.0559985,25.4663831 70.3329287,25.3618927 C70.5750613,25.2749392 70.8389423,25.1441435 71.1245718,24.9695056 C71.4094764,24.7955985 71.7168543,24.551544 72.0459807,24.237342 C72.3569833,23.9414076 72.5686681,23.653511 72.68176,23.373652 C72.7941269,23.0952545 72.8586473,22.8599684 72.8760461,22.6677937 C72.8934448,22.441276 72.8586473,22.2322952 72.7723785,22.0401205 C72.5295209,21.9707038 72.2699896,21.9707038 71.9937844,22.0401205 C71.7516518,22.1102679 71.483421,22.2491014 71.1890922,22.4580822 C70.8947633,22.6677937 70.59246,22.9988018 70.2807324,23.4525679 C70.0385998,23.8018435 69.8660622,24.1109306 69.7616697,24.3812904 C69.6580021,24.6516502 69.5891321,24.8737837 69.5543346,25.0476908 C69.5195371,25.2574023 69.5282364,25.4320401 69.5804327,25.5716042 M67.166356,22.7204043 C67.4084886,22.2491014 67.7289156,21.8399081 68.126912,21.4906325 C68.5249085,21.1420875 68.9613271,20.8593058 69.4376179,20.6408258 C69.9131838,20.4223459 70.4148478,20.2608607 70.9426099,20.157101 C71.470372,20.0518799 71.985085,20 72.486749,20 C73.0058117,20.0350737 73.4509298,20.2045966 73.823553,20.5092994 C74.1954513,20.8147329 74.4593324,21.20712 74.6151962,21.6871914 C74.77106,22.166532 74.8007829,22.7028674 74.7058147,23.2954669 C74.6101215,23.8887971 74.3549399,24.4908957 73.9402696,25.1003013 C73.490077,25.7637789 73.0101614,26.2599257 72.4997981,26.5916645 C71.9894347,26.9234033 71.5174936,27.1586894 71.0854246,27.2975228 C70.5837606,27.4728914 70.090796,27.5510765 69.6065308,27.5335396 C69.5891321,28.1962865 69.6580021,28.7625807 69.8138659,29.2338837 C69.882736,29.4428645 69.96538,29.6386927 70.0603482,29.8213682 C70.1553164,30.0047745 70.2807324,30.1662597 70.4365962,30.3058238 C70.59246,30.4453879 70.7823964,30.5462248 71.0078552,30.6068731 C71.2325891,30.6682521 71.4921204,30.6719056 71.7857243,30.619295 C72.4091796,30.5155353 72.9151932,30.2839027 73.3044903,29.9265893 C73.6937873,29.569276 74.0178391,29.2075784 74.2773704,28.8414966 C74.5369018,28.4754148 74.7485866,28.1568286 74.9131498,27.8864688 C75.077713,27.616109 75.2379265,27.5160028 75.3937903,27.5854195 C75.5837266,27.6731038 75.6830445,27.890853 75.6917439,28.239398 C75.7004433,28.5886736 75.6185241,28.9978668 75.4452616,29.4691698 C75.272724,29.939742 75.0175423,30.4241975 74.6797166,30.9203443 C74.3426158,31.4172218 73.9141715,31.8402984 73.3951088,32.189574 C72.8760461,32.538119 72.2794139,32.7777893 71.6044874,32.908585 C70.9295608,33.0393807 70.1770648,32.9743482 69.3469994,32.7120261 C68.6720729,32.5030453 68.1095133,32.1720372 67.6600456,31.7182711 C67.2098529,31.2652358 66.8553533,30.742053 66.595822,30.1494535 C66.3362906,29.5561233 66.1630281,28.9196817 66.0767592,28.239398 C65.9897655,27.5598449 65.9767164,26.8839454 66.0376121,26.2124301 C66.0985077,25.5409148 66.2282734,24.9000889 66.4269091,24.2892219 C66.6255448,23.6790856 66.8727521,23.1559028 67.166356,22.7204043" id="Fill-13-Copy" fill="#2C2C2D" fill-rule="nonzero"></path>
            <path d="M76.3548218,23.2297718 C76.4592143,23.0558647 76.6100035,22.8943795 76.8086392,22.7460469 C77.0079999,22.5984451 77.215335,22.4669187 77.4320944,22.3536599 C77.6481289,22.240401 77.8641634,22.1527168 78.0809229,22.0920685 C78.2969573,22.0306895 78.4738446,22 78.6130346,22 C78.6811798,22 78.7384506,22.0701474 78.7812226,22.2097115 C78.8247194,22.3492756 78.8674914,22.5326819 78.9109883,22.7584689 C78.9537602,22.9857173 78.984208,23.2429244 79.0016067,23.5308211 C79.0190055,23.8187178 79.0364043,24.110268 79.053803,24.4069331 C79.0886005,25.1040229 79.0965749,25.8975655 79.0799011,26.7875608 C79.304635,26.3337947 79.5467676,25.8895278 79.806299,25.4532986 C80.0310328,25.0872168 80.2905642,24.7072517 80.5848931,24.3148646 C80.8792219,23.9232082 81.1822502,23.5870852 81.4932528,23.3079569 C81.7875817,23.0470962 82.1116334,22.8468838 82.4668579,22.706589 C82.8206325,22.5677556 83.1802067,22.5107608 83.5434056,22.5370661 C83.9066046,22.5626407 84.2567544,22.6978206 84.5945802,22.9418751 C84.9324059,23.1859297 85.2303595,23.5527422 85.4898909,24.0408513 C85.6624285,24.3718593 85.7921942,24.7861675 85.8791879,25.2837757 C85.9654567,25.7799225 86.0307021,26.3031053 86.073474,26.8525933 C86.1169709,27.4020814 86.1597428,27.9559536 86.2032397,28.5134794 C86.2467365,29.0717359 86.324306,29.5861502 86.4373979,30.0574531 C86.5497648,30.5272947 86.7049037,30.9291809 86.9042643,31.260189 C87.1029001,31.591197 87.3928793,31.8009086 87.7734769,31.8885928 C88.0852045,31.9755464 88.3918575,31.9799306 88.6948858,31.9010148 C88.9971891,31.8228296 89.2828186,31.7176085 89.5517742,31.5875435 C89.81928,31.4567478 90.0534382,31.343489 90.252074,31.247767 C90.4507097,31.152045 90.5935244,31.130124 90.6805182,31.1820038 C90.7486633,31.2521512 90.7102411,31.4428645 90.5638016,31.7570664 C90.4159122,32.0712684 90.1737796,32.3942388 89.8366788,32.7252469 C89.499578,33.056255 89.0754834,33.3397674 88.5651201,33.5750535 C88.0547567,33.8103396 87.4704487,33.8848712 86.8136458,33.7979177 C85.515989,33.6232799 84.5815311,32.9473803 84.0109971,31.7702191 C83.4397381,30.5930578 83.1106117,29.0549297 83.0243429,27.1536426 C82.9895454,26.4733589 82.9076263,25.9677129 82.7778606,25.6367048 C82.6480949,25.3056968 82.4791821,25.1310589 82.2718469,25.1127914 C82.0637869,25.0959852 81.826004,25.2136283 81.5584982,25.4664512 C81.2895425,25.7192742 81.0002882,26.0809718 80.6892856,26.5522747 C80.3253617,27.0922636 80.057131,27.6329832 79.8845934,28.1737029 C79.7113308,28.7144225 79.5946142,29.2200684 79.5337185,29.6906406 C79.4728229,30.1612129 79.4344007,30.5806359 79.4170019,30.9467177 C79.3996032,31.3127995 79.3568312,31.5831593 79.2872362,31.7570664 C79.2009674,31.9499718 79.0190055,32.0800368 78.7420754,32.1494535 C78.4658702,32.2196009 78.1671917,32.2546746 77.8474896,32.2546746 C77.5270626,32.2546746 77.215335,32.2196009 76.9130317,32.1494535 C76.6100035,32.0800368 76.3983187,31.9923526 76.2772524,31.8885928 C76.2076574,31.8184454 76.1511114,31.5700067 76.1083395,31.1425459 C76.0648426,30.7150851 76.0343948,30.2006708 76.017721,29.5993029 C76.0003222,28.997935 75.9952476,28.3527249 76.0046719,27.6636727 C76.0133713,26.9746206 76.0307701,26.3206421 76.0561432,25.7017373 C76.0822414,25.0828326 76.1213885,24.5472279 76.1735848,24.0934618 C76.2250561,23.6404264 76.2852268,23.3517991 76.3548218,23.2297718" id="Fill-15-Copy" fill="#2C2C2D" fill-rule="nonzero"></path>
            <path d="M92.2303349,27.2359396 C92.075196,27.6539013 91.9751532,28.0945147 91.9316563,28.5570492 C91.8888844,29.018853 91.880185,29.4419295 91.9062831,29.8255482 C91.9316563,30.2084361 91.9882023,30.5314065 92.075196,30.7929979 C92.1614648,31.0545893 92.2651324,31.1941534 92.3861987,31.2109595 C92.6283313,31.281107 92.883513,31.2292271 93.1517437,31.0545893 C93.4199745,30.8799515 93.7788237,30.5226381 94.2290164,29.9826492 C94.4363515,29.7035209 94.6480363,29.3630137 94.8647957,28.9618582 C95.0808302,28.5607027 95.2627921,28.1683156 95.4092316,27.7846969 C95.5563961,27.401809 95.6470146,27.0620325 95.6818121,26.7646367 C95.7166096,26.4679716 95.6731127,26.2940645 95.5527713,26.2421846 C95.4135813,26.1888434 95.1931971,26.1369635 94.8901689,26.0850836 C94.5871407,26.0324731 94.2681636,26.0237047 93.9303378,26.0587784 C93.5925121,26.0938521 93.2641106,26.1939583 92.9444086,26.3598277 C92.6239816,26.5249664 92.3861987,26.8172472 92.2303349,27.2359396 M96.2784442,24.8808864 C96.3828367,23.7132243 96.4691055,22.6149789 96.5387005,21.5861502 C96.5901718,20.6961549 96.6336687,19.8163895 96.6684662,18.9432004 C96.7025388,18.0722033 96.7025388,17.4094565 96.6684662,16.9556904 C96.6336687,16.5201919 96.7329866,16.1183057 96.9664198,15.7522239 C97.1998531,15.3861421 97.4724335,15.0726708 97.7841611,14.8103487 C98.0951638,14.5494881 98.4068914,14.3485449 98.718619,14.2089808 C99.0296217,14.0694167 99.2543555,14 99.3928206,14 C99.5312857,14 99.6139297,14.3485449 99.6400279,15.0456348 C99.665401,15.7434554 99.665401,16.6466034 99.6400279,17.7528865 C99.6139297,18.8613617 99.5791322,20.1123239 99.5356353,21.5072344 C99.4928634,22.9021449 99.4798144,24.3058238 99.4964882,25.7182711 C99.5138869,27.0262281 99.5914563,28.0901305 99.7306463,28.9099783 C99.8691114,29.7298262 100.045999,30.370652 100.262758,30.8324558 C100.478793,31.2949903 100.707876,31.6216142 100.950009,31.8137889 C101.192141,32.0052328 101.4263,32.1316443 101.651034,32.1922926 C101.875767,32.2536716 102.066429,32.2931295 102.221568,32.3099357 C102.377431,32.3282032 102.481824,32.3888515 102.533295,32.4933419 C102.602165,32.6504429 102.546344,32.851386 102.364382,33.0954405 C102.183145,33.339495 101.91419,33.5484759 101.560415,33.722383 C101.205191,33.8970208 100.785446,33.9883586 100.30118,33.997127 C99.8169152,34.0066262 99.3065518,33.8619471 98.7700903,33.5660127 C98.3198976,33.3219582 97.9827968,32.9946036 97.758063,32.5846797 C97.5333291,32.1754864 97.3774653,31.7699467 97.2911965,31.3680605 C97.186804,30.9150252 97.1440321,30.4444529 97.1614308,29.9563439 C96.7801082,30.6541645 96.3306405,31.2643008 95.8115777,31.7874836 C95.5868439,32.0140013 95.3360119,32.2317505 95.0590818,32.4407313 C94.7821516,32.6504429 94.4798484,32.8331184 94.150722,32.9902194 C93.8223206,33.1473204 93.4670961,33.2693476 93.0872233,33.3563012 C92.7059007,33.4439855 92.2992049,33.4702907 91.8671359,33.4344863 C91.3995445,33.400874 90.9805246,33.2130836 90.6086263,32.8725763 C90.236728,32.5327998 89.9250004,32.105339 89.6741684,31.5909247 C89.4233364,31.0765103 89.2413745,30.5014477 89.1290075,29.8650061 C89.0166406,29.2285645 88.9774934,28.5913922 89.0122909,27.9549506 C89.0470884,27.3185089 89.1681547,26.7083726 89.3754898,26.1245416 C89.5835499,25.5399798 89.8858532,25.0379874 90.2838496,24.6200257 C90.5781785,24.3240913 90.8891812,24.096843 91.2183075,23.939742 C91.546709,23.782641 91.880185,23.6825348 92.2172858,23.6386927 C92.5551116,23.5955813 92.8922123,23.5955813 93.2293131,23.6386927 C93.5671389,23.6825348 93.8824912,23.748298 94.1768201,23.8352516 C94.8684205,24.0442324 95.5694451,24.3927774 96.2784442,24.8808864" id="Fill-17-Copy" fill="#2C2C2D" fill-rule="nonzero"></path>
            <path d="M105.580433,25.5716042 C105.805166,25.5365305 106.055998,25.4663831 106.332929,25.3618927 C106.575061,25.2749392 106.838942,25.1441435 107.124572,24.9695056 C107.409476,24.7955985 107.716854,24.551544 108.045981,24.237342 C108.356983,23.9414076 108.568668,23.653511 108.68176,23.373652 C108.794127,23.0952545 108.858647,22.8599684 108.876046,22.6677937 C108.893445,22.441276 108.858647,22.2322952 108.772378,22.0401205 C108.529521,21.9707038 108.269989,21.9707038 107.993784,22.0401205 C107.751652,22.1102679 107.483421,22.2491014 107.189092,22.4580822 C106.894763,22.6677937 106.59246,22.9988018 106.280732,23.4525679 C106.0386,23.8018435 105.866062,24.1109306 105.76167,24.3812904 C105.658002,24.6516502 105.589132,24.8737837 105.554334,25.0476908 C105.519537,25.2574023 105.528236,25.4320401 105.580433,25.5716042 M103.166356,22.7204043 C103.408489,22.2491014 103.728916,21.8399081 104.126912,21.4906325 C104.524908,21.1420875 104.961327,20.8593058 105.437618,20.6408258 C105.913184,20.4223459 106.414848,20.2608607 106.94261,20.157101 C107.470372,20.0518799 107.985085,20 108.486749,20 C109.005812,20.0350737 109.45093,20.2045966 109.823553,20.5092994 C110.195451,20.8147329 110.459332,21.20712 110.615196,21.6871914 C110.77106,22.166532 110.800783,22.7028674 110.705815,23.2954669 C110.610121,23.8887971 110.35494,24.4908957 109.94027,25.1003013 C109.490077,25.7637789 109.010161,26.2599257 108.499798,26.5916645 C107.989435,26.9234033 107.517494,27.1586894 107.085425,27.2975228 C106.583761,27.4728914 106.090796,27.5510765 105.606531,27.5335396 C105.589132,28.1962865 105.658002,28.7625807 105.813866,29.2338837 C105.882736,29.4428645 105.96538,29.6386927 106.060348,29.8213682 C106.155316,30.0047745 106.280732,30.1662597 106.436596,30.3058238 C106.59246,30.4453879 106.782396,30.5462248 107.007855,30.6068731 C107.232589,30.6682521 107.49212,30.6719056 107.785724,30.619295 C108.40918,30.5155353 108.915193,30.2839027 109.30449,29.9265893 C109.693787,29.569276 110.017839,29.2075784 110.27737,28.8414966 C110.536902,28.4754148 110.748587,28.1568286 110.91315,27.8864688 C111.077713,27.616109 111.237926,27.5160028 111.39379,27.5854195 C111.583727,27.6731038 111.683044,27.890853 111.691744,28.239398 C111.700443,28.5886736 111.618524,28.9978668 111.445262,29.4691698 C111.272724,29.939742 111.017542,30.4241975 110.679716,30.9203443 C110.342616,31.4172218 109.914171,31.8402984 109.395109,32.189574 C108.876046,32.538119 108.279414,32.7777893 107.604487,32.908585 C106.929561,33.0393807 106.177065,32.9743482 105.346999,32.7120261 C104.672073,32.5030453 104.109513,32.1720372 103.660045,31.7182711 C103.209853,31.2652358 102.855353,30.742053 102.595822,30.1494535 C102.336291,29.5561233 102.163028,28.9196817 102.076759,28.239398 C101.989765,27.5598449 101.976716,26.8839454 102.037612,26.2124301 C102.098508,25.5409148 102.228273,24.9000889 102.426909,24.2892219 C102.625545,23.6790856 102.872752,23.1559028 103.166356,22.7204043" id="Fill-19-Copy" fill="#2C2C2D" fill-rule="nonzero"></path>
            <path d="M112.546254,22.6934244 C112.355593,22.5882033 112.183055,22.527555 112.027192,22.5100182 C111.871328,22.493212 111.729238,22.4844436 111.598747,22.4844436 C111.469707,22.4844436 111.356615,22.4705603 111.261647,22.4449857 C111.166678,22.4186804 111.084759,22.3361111 111.015164,22.1965469 C110.962968,22.0745197 111.045612,21.9086503 111.261647,21.6996695 C111.478406,21.4906886 111.76766,21.3160508 112.130859,21.1764867 C112.494783,21.0369226 112.900754,20.9799278 113.350947,21.0062331 C113.800414,21.0325384 114.233208,21.2115604 114.648603,21.5425685 C115.011802,21.8560397 115.310481,22.1578197 115.543914,22.4449857 C115.777347,22.7328824 115.962934,22.9900895 116.101399,23.2166072 C116.257263,23.4781986 116.36963,23.7310216 116.439225,23.9750761 C116.92349,23.5037732 117.425154,23.1121168 117.944217,22.7986456 C118.393684,22.5195173 118.895348,22.2922689 119.449209,22.1183618 C120.003069,21.9444547 120.556204,21.9349556 121.110064,22.0920565 C121.248529,22.1439364 121.313775,22.252811 121.305075,22.4186804 C121.296376,22.5852805 121.227506,22.7635719 121.097015,22.9550158 C120.967975,23.1471905 120.790362,23.3298661 120.565629,23.5037732 C120.34017,23.6791417 120.071939,23.801169 119.760936,23.8705857 C119.15488,24.0108805 118.674964,24.2717412 118.320465,24.6553598 C117.965965,25.0389785 117.693385,25.4883604 117.502723,26.002044 C117.312787,26.5164583 117.191721,27.0659464 117.139524,27.6505082 C117.088053,28.2350699 117.061955,28.7977106 117.061955,29.3376995 C117.078629,30.4717493 116.92349,31.3127876 116.594364,31.8615449 C116.265962,32.411033 115.824469,32.7033138 115.271334,32.7376568 C114.631205,32.7734613 114.155639,32.4767962 113.843911,31.8483923 C113.532184,31.2207191 113.377045,30.1575474 113.377045,28.6574158 C113.393718,27.7155406 113.403143,26.8964235 113.403143,26.1986029 C113.403143,25.501513 113.377045,24.912567 113.324848,24.4332264 C113.272652,23.9538857 113.186383,23.5739206 113.065317,23.2947924 C112.944251,23.0163948 112.770988,22.8154517 112.546254,22.6934244" id="Fill-21-Copy" fill="#2C2C2D" fill-rule="nonzero"></path>
            <path d="M128.183568,20.6420221 C128.252438,20.7815862 128.243739,20.8904608 128.15747,20.968646 C128.070476,21.0475618 127.945785,21.1257469 127.781222,21.2046628 C127.616659,21.2828479 127.431072,21.3793006 127.223012,21.4918287 C127.015677,21.6058183 126.816316,21.7665728 126.62638,21.9762843 C126.435719,22.1852651 126.27623,22.4556249 126.146464,22.7873637 C126.016699,23.1183718 125.951453,23.5370642 125.951453,24.0419794 C125.934055,24.548356 126.051496,25.0364651 126.302328,25.5070373 C126.552435,25.9783402 126.859813,26.4364905 127.223012,26.8807574 C127.586936,27.3250244 127.984207,27.7612536 128.417001,28.1887144 C128.84907,28.6161751 129.239092,29.0516737 129.584893,29.4959406 C129.930693,29.9416689 130.203273,30.3947043 130.402634,30.8565081 C130.60127,31.3183119 130.66579,31.7947297 130.59692,32.2821081 C130.509926,32.7709479 130.237346,33.1845253 129.779904,33.5250325 C129.321011,33.864809 128.762802,34.1264004 128.105999,34.309076 C127.447746,34.4924822 126.738747,34.5925884 125.977552,34.6101253 C125.216356,34.6276621 124.502282,34.5618989 123.83678,34.4142971 C123.170553,34.2659645 122.594944,34.034332 122.110679,33.7208607 C121.626414,33.4073895 121.324111,33.006234 121.202319,32.5173942 C121.012383,31.8027674 120.955837,31.2006688 121.034132,30.7125598 C121.111701,30.2244507 121.254516,29.8196417 121.462576,29.4959406 C121.669911,29.1744316 121.903344,28.920878 122.162875,28.7374717 C122.422407,28.5547962 122.647141,28.4108478 122.837077,28.3063574 C123.235073,28.0798397 123.499679,28.0798397 123.62872,28.3063574 C123.758486,28.5328751 123.676567,28.8909192 123.382238,29.3782975 C123.243773,29.6230828 123.2097,29.8978268 123.27857,30.2025296 C123.34744,30.5079631 123.507654,30.7958598 123.758486,31.0662196 C124.009318,31.3365794 124.329745,31.5674813 124.719042,31.7589253 C125.108339,31.9511 125.553457,32.0555904 126.055121,32.0731273 C126.366849,32.0906641 126.682201,32.0599746 127.002628,31.9817895 C127.323055,31.9028736 127.586936,31.7808464 127.794271,31.6157077 C128.002331,31.4498383 128.127022,31.2488952 128.170519,31.0136091 C128.214016,30.778323 128.122673,30.5123474 127.897939,30.2156823 C127.673205,29.9190172 127.283908,29.5448976 126.730048,29.0911316 C126.176187,28.6373655 125.610003,28.1361038 125.030045,27.5866158 C124.450811,27.0378584 123.940448,26.4532966 123.499679,25.8336612 C123.058186,25.2154871 122.837077,24.5914674 122.837077,23.9637943 C122.837077,22.7267154 123.058186,21.8191833 123.499679,21.24339 C123.940448,20.6683273 124.653797,20.2927464 125.640451,20.1188393 C126.124716,20.0318857 126.522712,19.9924278 126.83444,20.0011962 C127.145443,20.0099647 127.391925,20.0486919 127.573887,20.1188393 C127.755124,20.1889867 127.889239,20.2715561 127.975508,20.367278 C128.062502,20.4637307 128.131372,20.5550685 128.183568,20.6420221" id="Fill-23-Copy" fill="#2C2C2D" fill-rule="nonzero"></path>
            <path d="M61.5463565,17.4355874 C61.3361216,17.4370488 61.0555667,17.4728532 60.6742441,17.5386164 C60.3306188,17.5978033 59.9688698,17.7512508 59.5628989,17.9163895 C59.1562031,18.0822588 58.7321086,18.3314283 58.2906153,18.6617057 C57.8498469,18.9934445 57.4214027,19.455979 57.0060075,20.0478478 C56.4354735,20.8676956 56.2839593,21.5304425 56.5521901,22.0360884 C56.8204208,22.5417344 57.5337696,23.048111 58.6929614,23.5530262 C59.2808942,23.7978115 59.8999997,24.0111765 60.5488281,24.1938521 C61.1976565,24.3772583 61.8029881,24.630812 62.3655477,24.9530516 C62.9273824,25.2752913 63.4167222,25.7202889 63.8313925,26.2865831 C64.2467876,26.8536081 64.5229928,27.633998 64.6621828,28.627753 C64.7658504,29.3949903 64.631735,30.0496995 64.2598367,30.5896884 C63.8872135,31.130408 63.3906241,31.5790592 62.7678938,31.9371032 C62.1451635,32.2944166 61.4571879,32.556008 60.7046919,32.7218774 C59.952196,32.8870161 59.255521,32.9703161 58.6153919,32.9703161 C57.3003364,32.9871223 56.1846415,32.8175994 55.2675823,32.460286 C54.3505232,32.1029726 53.6234004,31.6974329 53.0876638,31.2436668 C52.5512023,30.7899008 52.2133766,30.3500181 52.0756365,29.9225573 C51.9371714,29.4958272 51.9886427,29.2123147 52.2315003,29.0727506 C52.3866392,28.9857971 52.598324,28.9857971 52.8672797,29.0727506 C53.1347854,29.1604349 53.4639118,29.2780779 53.8532089,29.4256798 C54.2425059,29.5740123 54.6839992,29.7179607 55.1769638,29.8575248 C55.6699284,29.9970889 56.2230637,30.0760047 56.8378196,30.0928109 C57.4518505,30.1103477 58.1260521,30.0402003 58.8618742,29.8830994 C59.5969715,29.7259984 60.397314,29.4132578 61.2621769,28.9419549 C61.5739045,28.7680478 61.7594912,28.5188784 61.8203868,28.1966387 C61.8805575,27.8736683 61.8073378,27.5338918 61.6000026,27.1758477 C61.3919426,26.819265 61.0417927,26.483142 60.5488281,26.1689401 C60.0558635,25.8547381 59.4106598,25.6106836 58.6153919,25.4367765 C57.9230666,25.2796755 57.2437904,25.1145368 56.5782882,24.939899 C55.912061,24.7652612 55.3103542,24.5212066 54.7746177,24.2077354 C54.2381562,23.8935335 53.7966629,23.4923779 53.4508628,23.0042688 C53.1043376,22.5161598 52.8970025,21.8884866 52.8281325,21.1205186 C52.793335,20.5973358 52.9491988,19.9959679 53.2949989,19.3156842 C53.6415241,18.6361311 54.0953415,17.9646158 54.6579011,17.3011382 C55.2197357,16.639122 55.8649394,16.0238708 56.5913373,15.4575766 C57.3177351,14.8912824 58.0484826,14.4674751 58.7835799,14.1890775 C59.519402,13.9099493 60.3226444,13.9939801 60.9801721,14.0992012 C61.636975,14.2036916 62.2734793,14.4667444 62.7468703,14.7867919 C63.2202614,15.1068395 63.294206,15.2683247 63.8589405,15.9281488 C64.4236749,16.5887036 64.8992408,17.2755636 65.0123327,17.4326646 C65.1246996,17.5897656 65.0942518,17.7636727 64.9217142,17.9558474 C64.7310529,18.148022 64.5229928,18.221823 64.2989839,18.1779808 C64.0735251,18.1348694 63.8183434,18.0515694 63.5334389,17.9295421 C63.2478094,17.8075148 62.9360818,17.6898718 62.598981,17.5758822 C62.2618802,17.4633541 61.9958243,17.4319339 61.5463565,17.4355874" id="Fill-26-Copy" fill="#2C2C2D" fill-rule="nonzero"></path>
            <g id="Group-Copy" transform="translate(87.000000, 37.000000)">
                <g id="Rectangle">
                    <mask id="mask-2" fill="white">
                        <use xlink:href="#path-1"></use>
                    </mask>
                    <use id="Mask" fill="#FFFFFF" xlink:href="#path-1"></use>
                    <rect fill="#42ABF3" mask="url(#mask-2)" x="0" y="-1.33333333" width="48" height="8"></rect>
                </g>
            </g>
        </g>
    </g>
</svg>